<svg version="1.2" baseProfile="tiny-ps" xmlns="http://www.w3.org/2000/svg" viewBox="0 0 107 77" width="107" height="77">
	<title>8</title>
	<style>
		tspan { white-space:pre }
		.shp0 { fill: #000000 } 
	</style>
	<g id="8">
		<path id="&lt;Compound Path&gt;" fill-rule="evenodd" class="shp0" d="M54.53 0.21L64.11 0.21L64.11 6.87L54.53 6.87L54.53 15.89L105.87 15.89C106.47 15.89 107.03 16.4 107.03 17.05L107.03 74.8C107.03 75.96 106.07 76.87 104.96 76.87L88.62 76.87L88.62 35.11L81.91 35.11L69.86 26.84L53.87 15.89L37.89 26.84L25.84 35.11L19.13 35.11L19.13 76.87L2.79 76.87C1.68 76.87 0.72 75.96 0.72 74.8L0.72 17.05C0.72 16.4 1.28 15.89 1.88 15.89L53.22 15.89L53.22 0.31C53.22 0.28 53.23 0.25 53.27 0.21L54.48 0.21C54.51 0.25 54.53 0.28 54.53 0.31L54.53 0.21ZM85.9 76.87L78.79 76.87C78.79 76.77 78.79 55.43 78.79 55.38C78.79 55.23 78.79 55.03 78.79 54.88C78.79 51.15 75.76 48.12 72.03 48.12C68.3 48.12 65.27 51.15 65.27 54.88C65.27 55.03 65.27 55.23 65.32 55.38C65.27 55.43 65.27 55.48 65.27 55.58L65.27 76.87L60.63 76.87L60.63 55.58C60.63 55.48 60.63 55.43 60.58 55.38C60.63 55.23 60.63 55.03 60.63 54.88C60.63 51.15 57.61 48.12 53.87 48.12C50.14 48.12 47.12 51.15 47.12 54.88C47.12 55.03 47.12 55.23 47.17 55.38C47.12 55.43 47.12 55.48 47.12 55.58L47.12 76.87L42.48 76.87L42.48 55.58C42.48 55.48 42.48 55.43 42.43 55.38C42.48 55.23 42.48 55.03 42.48 54.88C42.48 51.15 39.45 48.12 35.72 48.12C31.99 48.12 28.96 51.15 28.96 54.88C28.96 55.03 28.96 55.23 29.01 55.38C28.96 55.43 28.96 55.48 28.96 55.58L28.96 76.87L21.85 76.87L21.85 37.83L85.9 37.83L85.9 76.87ZM53.87 19.48L64.62 26.84L75.41 34.25L32.39 34.25L43.13 26.84L53.87 19.48Z" />
	</g>
</svg>