<svg version="1.2" baseProfile="tiny-ps" xmlns="http://www.w3.org/2000/svg" viewBox="0 0 21 18" width="21" height="18">
	<title>Artboard 1</title>
	<style>
		tspan { white-space:pre }
		.shp0 { fill: #434a54 } 
	</style>
	<g id="Artboard 1">
		<g id="hedder and banner">
			<g id="middide element">
				<g id="middile all">
					<g id="footer">
						<path id="CS copy" class="shp0" d="M18.37 9.51L17.06 9.51C16.69 9.51 16.4 9.22 16.4 8.86C16.4 8.51 16.69 8.22 17.06 8.22L18.37 8.22C18.74 8.22 19.03 8.51 19.03 8.86C19.03 9.22 18.74 9.51 18.37 9.51ZM15.79 5.21C15.53 5.47 15.12 5.47 14.86 5.21C14.6 4.96 14.6 4.55 14.86 4.3L15.79 3.39C16.05 3.14 16.46 3.14 16.72 3.39C16.98 3.64 16.98 4.05 16.72 4.3L15.79 5.21ZM14.82 10.25L14.82 10.25C15.4 10.92 15.74 11.79 15.74 12.73C15.74 14.87 13.98 16.61 11.8 16.61C10.89 16.61 7.59 16.61 6.54 16.61C3.64 16.61 1.28 14.29 1.28 11.44C1.28 8.59 3.64 6.28 6.54 6.28C7.06 6.28 7.56 6.36 8.03 6.49C8.75 5.58 9.88 4.99 11.14 4.99C13.32 4.99 15.09 6.73 15.09 8.86C15.09 9.35 14.99 9.82 14.82 10.25ZM2.6 11.44C2.6 13.58 4.36 15.31 6.54 15.31C7.73 15.31 10.81 15.31 11.8 15.31C13.25 15.31 14.43 14.16 14.43 12.73C14.43 11.31 13.25 10.15 11.8 10.15C11.27 10.15 10.79 10.31 10.38 10.57C9.97 8.86 8.41 7.57 6.54 7.57C4.36 7.57 2.6 9.31 2.6 11.44ZM11.14 6.28C10.42 6.28 9.76 6.57 9.28 7.04C10.05 7.5 10.69 8.16 11.13 8.93C11.35 8.89 11.57 8.86 11.8 8.86C12.5 8.86 13.15 9.04 13.72 9.36L13.72 9.36C13.75 9.2 13.77 9.03 13.77 8.86C13.77 7.44 12.59 6.28 11.14 6.28ZM11.14 3.7C10.78 3.7 10.49 3.41 10.49 3.06L10.49 1.77C10.49 1.41 10.78 1.12 11.14 1.12C11.51 1.12 11.8 1.41 11.8 1.77L11.8 3.06C11.8 3.41 11.51 3.7 11.14 3.7ZM6.5 5.21L5.57 4.3C5.31 4.05 5.31 3.64 5.57 3.39C5.82 3.14 6.24 3.14 6.5 3.39L7.42 4.3C7.68 4.55 7.68 4.96 7.42 5.21C7.17 5.47 6.75 5.47 6.5 5.21Z" />
					</g>
				</g>
			</g>
		</g>
	</g>
</svg>