<svg version="1.2" baseProfile="tiny-ps" xmlns="http://www.w3.org/2000/svg" viewBox="0 0 18 19" width="18" height="19">
	<title>Artboard 1</title>
	<style>
		tspan { white-space:pre }
		.shp0 { fill: #f6f6f6 } 
	</style>
	<g id="Artboard 1">
		<g id="hedder and banner">
			<g id="middide element">
				<g id="middile all">
					<g id="footer">
						<path id="CDM Alt" class="shp0" d="M15.57 7.9C16.02 8.53 16.28 9.31 16.28 10.14L16.28 10.14C16.28 11.84 15.19 13.29 13.67 13.82C13.66 13.39 13.52 12.96 13.27 12.58C14.26 12.22 14.98 11.26 14.98 10.14L14.98 10.14L14.98 10.14C14.98 8.7 13.81 7.54 12.36 7.54C11.84 7.54 11.36 7.69 10.95 7.96C10.55 6.22 9 4.93 7.14 4.93C4.97 4.93 3.22 6.68 3.22 8.84C3.22 9.29 3.3 9.73 3.44 10.14L3.45 10.14C3.77 11.03 4.39 11.78 5.21 12.24L5.19 12.26C4.87 12.58 4.67 12.97 4.58 13.38C3.36 12.69 2.44 11.53 2.08 10.14L2.08 10.14C1.97 9.72 1.91 9.29 1.91 8.84C1.91 5.96 4.25 3.63 7.14 3.63C7.79 3.63 8.42 3.75 8.99 3.97C9.53 2.44 10.98 1.35 12.69 1.35C12.94 1.35 13.18 1.37 13.41 1.42C13.37 1.61 13.34 1.8 13.34 2C13.34 3.44 14.51 4.6 15.96 4.6C16.16 4.6 16.35 4.58 16.54 4.54C16.59 4.77 16.61 5.01 16.61 5.26C16.61 6.28 16.22 7.2 15.57 7.9ZM12.11 2.72C11.16 2.93 10.42 3.67 10.17 4.6L10.17 4.6C10.8 5.05 11.32 5.63 11.7 6.3C11.92 6.26 12.14 6.23 12.36 6.23C13.22 6.23 14.01 6.51 14.65 6.97C14.93 6.65 15.14 6.27 15.24 5.84C13.65 5.54 12.4 4.3 12.11 2.72ZM6.81 12.49L7.5 13.18C7.89 13.56 7.89 14.18 7.5 14.56C7.12 14.94 6.5 14.94 6.12 14.56C5.73 14.18 5.73 13.56 6.12 13.18L6.81 12.49ZM9.1 15.09L9.79 15.78C10.17 16.16 10.17 16.78 9.79 17.16C9.41 17.55 8.79 17.55 8.4 17.16C8.02 16.78 8.02 16.16 8.4 15.78L9.1 15.09ZM11.38 12.49L12.08 13.18C12.46 13.56 12.46 14.18 12.08 14.56C11.69 14.94 11.07 14.94 10.69 14.56C10.31 14.18 10.31 13.56 10.69 13.18L11.38 12.49Z" />
					</g>
				</g>
			</g>
		</g>
	</g>
</svg>