<svg version="1.2" baseProfile="tiny-ps" xmlns="http://www.w3.org/2000/svg" viewBox="0 0 19 19" width="19" height="19">
	<title>Artboard 1</title>
	<style>
		tspan { white-space:pre }
		.shp0 { fill: #ffffff;stroke: #ffffff;stroke-width: 3.784 } 
	</style>
	<g id="Artboard 1">
		<g id="hedder and banner">
			<g id="middide element">
				<g id="middile all">
					<path id="search" class="shp0" d="M11.28 1.71C8.1 1.71 5.52 4.29 5.52 7.47C5.52 8.44 5.76 9.36 6.19 10.16L2.18 14.16L2.19 14.16C1.88 14.47 1.68 14.9 1.68 15.37C1.68 16.31 2.44 17.06 3.37 17.06C3.85 17.06 4.27 16.87 4.58 16.56L4.58 16.56L8.58 12.55C9.38 12.98 10.3 13.23 11.28 13.23C14.46 13.23 17.03 10.65 17.03 7.47C17.03 4.29 14.46 1.71 11.28 1.71ZM3.98 15.96C3.83 16.12 3.61 16.22 3.37 16.22C2.91 16.22 2.53 15.84 2.53 15.37C2.53 15.13 2.63 14.92 2.79 14.76L2.78 14.76L6.65 10.89C6.99 11.35 7.39 11.75 7.85 12.09L3.98 15.96ZM11.28 12.27C8.63 12.27 6.48 10.12 6.48 7.47C6.48 4.82 8.63 2.67 11.28 2.67C13.93 2.67 16.07 4.82 16.07 7.47C16.07 10.12 13.93 12.27 11.28 12.27ZM11.28 4.11C9.42 4.11 7.92 5.61 7.92 7.47C7.92 7.6 8.02 7.71 8.16 7.71C8.29 7.71 8.4 7.6 8.4 7.47C8.4 5.88 9.69 4.59 11.28 4.59C11.41 4.59 11.52 4.48 11.52 4.35C11.52 4.22 11.41 4.11 11.28 4.11Z" />
				</g>
			</g>
		</g>
	</g>
</svg>