<svg version="1.2" baseProfile="tiny-ps" xmlns="http://www.w3.org/2000/svg" viewBox="0 0 19 20" width="19" height="20">
	<title>Artboard 1</title>
	<style>
		tspan { white-space:pre }
		.shp0 { fill: #ffffff } 
	</style>
	<g id="Artboard 1">
		<g id="hedder and banner">
			<g id="middide element">
				<g id="middile all">
					<g id="footer">
						<path id="Sun" class="shp0" d="M17.21 10.72L15.86 10.72C15.49 10.72 15.18 10.42 15.18 10.05C15.18 9.67 15.49 9.37 15.86 9.37L17.21 9.37C17.58 9.37 17.89 9.67 17.89 10.05C17.89 10.42 17.58 10.72 17.21 10.72ZM14.56 6.25C14.29 6.51 13.86 6.51 13.6 6.25C13.34 5.99 13.34 5.56 13.6 5.3L14.56 4.35C14.82 4.09 15.25 4.09 15.51 4.35C15.78 4.61 15.78 5.04 15.51 5.3L14.56 6.25ZM9.78 14.07C7.54 14.07 5.72 12.27 5.72 10.05C5.72 7.82 7.54 6.02 9.78 6.02C12.02 6.02 13.83 7.82 13.83 10.05C13.83 12.27 12.02 14.07 9.78 14.07ZM9.78 7.36C8.28 7.36 7.07 8.56 7.07 10.05C7.07 11.53 8.28 12.73 9.78 12.73C11.27 12.73 12.48 11.53 12.48 10.05C12.48 8.56 11.27 7.36 9.78 7.36ZM9.78 4.68C9.4 4.68 9.1 4.38 9.1 4L9.1 2.66C9.1 2.29 9.4 1.99 9.78 1.99C10.15 1.99 10.45 2.29 10.45 2.66L10.45 4C10.45 4.38 10.15 4.68 9.78 4.68ZM5 6.25L4.04 5.3C3.78 5.04 3.78 4.61 4.04 4.35C4.3 4.09 4.73 4.09 5 4.35L5.95 5.3C6.22 5.56 6.22 5.99 5.95 6.25C5.69 6.51 5.26 6.51 5 6.25ZM4.37 10.05C4.37 10.42 4.07 10.72 3.69 10.72L2.34 10.72C1.97 10.72 1.66 10.42 1.66 10.05C1.66 9.67 1.97 9.37 2.34 9.37L3.69 9.37C4.07 9.37 4.37 9.67 4.37 10.05ZM5 13.84C5.26 13.58 5.69 13.58 5.95 13.84C6.22 14.1 6.22 14.53 5.95 14.79L5 15.74C4.73 16 4.3 16 4.04 15.74C3.78 15.48 3.78 15.05 4.04 14.79L5 13.84ZM9.78 15.41C10.15 15.41 10.45 15.71 10.45 16.09L10.45 17.43C10.45 17.8 10.15 18.1 9.78 18.1C9.4 18.1 9.1 17.8 9.1 17.43L9.1 16.09C9.1 15.71 9.4 15.41 9.78 15.41ZM14.56 13.84L15.51 14.79C15.78 15.05 15.78 15.48 15.51 15.74C15.25 16 14.82 16 14.56 15.74L13.6 14.79C13.34 14.53 13.34 14.1 13.6 13.84C13.86 13.58 14.29 13.58 14.56 13.84Z" />
					</g>
				</g>
			</g>
		</g>
	</g>
</svg>